<svg xmlns="http://www.w3.org/2000/svg" viewBox="0 0 854.23 338.2"><defs><style>.cls-1{fill:#fff;}</style></defs><title>Asset 1</title><g id="Layer_2" data-name="Layer 2"><g id="Layer_1-2" data-name="Layer 1"><path class="cls-1" d="M101.53,140.76a12.81,12.81,0,0,0-4.06,7,54.34,54.34,0,0,0-1.12,11.66q-.13,7.89-.14,15.77v50.06a43.51,43.51,0,0,1-4.82,6.86A84.21,84.21,0,0,1,82,241.91a56.56,56.56,0,0,1-12.24,8.4,29.21,29.21,0,0,1-13.42,3.43,37,37,0,0,1-23.78-8.4q-10.48-8.4-17.69-24.69t-11-39.77A326.79,326.79,0,0,1,0,128.24q0-8.57.7-19.71T3.15,85A246.93,246.93,0,0,1,8,60a163.92,163.92,0,0,1,7.9-24q6.72-16.11,16.5-25.88A32.39,32.39,0,0,1,56.22.34,29.84,29.84,0,0,1,71,3.94a51.84,51.84,0,0,1,10.84,7.89,49.57,49.57,0,0,1,6.78,7.89c1.59,2.4,2.47,3.6,2.66,3.6S92,22,92.86,19.2s1.86-6,3.07-9.94h1.26V84H95.51A242.94,242.94,0,0,0,90.9,54.86a158.58,158.58,0,0,0-6.57-22.63Q79.85,20.58,72.86,13.37T57.2,6.17Q48,6.17,40.55,16.29T28,43.38a235.94,235.94,0,0,0-8,39.09,369.32,369.32,0,0,0-2.8,46.46,411.89,411.89,0,0,0,2.66,48.86q2.66,22.13,7.69,37.89T39.86,240.2q7.26,8.75,16.64,8.74,6.7,0,12.51-5.66t9.16-18.34q1.13-4.45,1.68-15.77t.56-23.32q0-12-.49-21.6a51.89,51.89,0,0,0-2.87-15.78q-3.21-8.91-11.32-10.63v-3.42h41v3.42A15.39,15.39,0,0,0,101.53,140.76Z"/><path class="cls-1" d="M99.67,252V248.6a18.44,18.44,0,0,0,6.5-4.46,24.49,24.49,0,0,0,5.11-8.91,27.63,27.63,0,0,0,1-5.83q.35-3.78.56-8.92t.28-10.8c0-3.77.07-7.48.07-11.14q0-4.8.07-13t.14-18q.06-9.76.07-20.05V48.35c0-4.12-.07-7.94-.21-11.49s-.35-6.74-.63-9.6a30.2,30.2,0,0,0-1.26-6.69q-2-5.82-4.83-8.4a16.37,16.37,0,0,0-6.5-3.6V5.14h41.82V8.57a21.59,21.59,0,0,0-6.3,3.78q-3.35,2.74-5.17,11a74.63,74.63,0,0,0-1.33,14.74Q129,47,128.9,54.86q0,8.58-.07,17t-.07,17V203.68q0,9.94.14,19.2t1.26,13a17.81,17.81,0,0,0,5.31,8.92A16.75,16.75,0,0,0,142,248.6V252Z"/><path class="cls-1" d="M234.29,252H144.51V248.6a22.86,22.86,0,0,0,6.92-4.46,20.56,20.56,0,0,0,5.39-8.57,32.8,32.8,0,0,0,1.19-6c.32-2.63.58-5.66.76-9.09s.35-7,.49-10.8.21-7.48.21-11.14q0-4.8.07-13t.14-18q.07-9.76.07-20.05V49q0-6.18-.21-11.49c-.14-3.54-.35-6.69-.63-9.43a30.39,30.39,0,0,0-1.25-6.52,21.37,21.37,0,0,0-5.25-8.91,16.9,16.9,0,0,0-6.92-4.12V5.14H190.1V8.57a37.22,37.22,0,0,0-4.34,2.06A14.93,14.93,0,0,0,181,15.09a28.42,28.42,0,0,0-3.85,8.74,59.57,59.57,0,0,0-1.74,14.92q-.15,12-.21,21.94t-.14,19.55q-.07,9.6-.07,19.89v62.4q0,8.92.07,18.35t.07,21.08q.13,11,.35,20.92T177,237.63a9.07,9.07,0,0,0,2.24,3.42,15,15,0,0,0,4.06,2.92,32.58,32.58,0,0,0,5.17,2.06,19.08,19.08,0,0,0,5.6.85c.74,0,1.93,0,3.56-.17A52.55,52.55,0,0,0,203,246a42.24,42.24,0,0,0,6-1.55,19.76,19.76,0,0,0,5.45-2.74,31,31,0,0,0,9.3-9.94,71.14,71.14,0,0,0,6.37-14.23,141,141,0,0,0,4.47-17.49q1.81-9.44,3.5-19.72l1.39,1Z"/><path class="cls-1" d="M344.24,170.42a203.69,203.69,0,0,1-6.86,33.6,100.54,100.54,0,0,1-10.07,23.32,62,62,0,0,1-12.16,14.74,39.35,39.35,0,0,1-13.29,7.72A42.75,42.75,0,0,1,288.58,252h-51V248.6a15.8,15.8,0,0,0,6.79-4.46,22.29,22.29,0,0,0,5-8.23,21.68,21.68,0,0,0,1.05-5.83q.34-4.11.63-9.26t.42-11q.13-5.82.14-11.31,0-4.8.07-13t.14-18q.06-9.76.07-20.05V48.35c0-4.12-.07-7.94-.21-11.49s-.35-6.74-.63-9.6a30.2,30.2,0,0,0-1.26-6.69q-2.1-6.16-5-8.57a18.27,18.27,0,0,0-6.58-3.43V5.14Q244,5.14,255,5t26.72-.17h8.95a42.12,42.12,0,0,1,9.23,1,38,38,0,0,1,9.22,3.43,34.18,34.18,0,0,1,9.09,7.2,73,73,0,0,1,11,15.77,117.45,117.45,0,0,1,9,22.81,207.64,207.64,0,0,1,6.16,30.51,304.41,304.41,0,0,1,2.3,39.61A360.2,360.2,0,0,1,344.24,170.42ZM327,87.1A228.91,228.91,0,0,0,320,53a117.79,117.79,0,0,0-10.63-25.89Q303.26,16.47,296,13.37a32.3,32.3,0,0,0-6.15-2.22,34,34,0,0,0-8.26-.86c-1.11,0-2.33.06-3.63.17a21.72,21.72,0,0,0-3.85.69c-1.26.34-2.42.63-3.49.85A7.22,7.22,0,0,0,268,13q-.7,16.8-.84,46.29T267,129.61v40.12q0,17.84.14,29.15,0,4.8.21,10.46t.49,11c.19,3.55.49,6.74.91,9.6a29.15,29.15,0,0,0,1.47,6.34q2.79,6.87,7.06,8.75a19.85,19.85,0,0,0,8,1.88,32,32,0,0,0,7.2-.85,18.5,18.5,0,0,0,6.93-3.26q15.09-10.62,22.58-41.32t7.48-75.61A294,294,0,0,0,327,87.1Z"/><path class="cls-1" d="M390.76,252V248.6a7.78,7.78,0,0,0,2-.69,11,11,0,0,0,3.35-2.4,14.84,14.84,0,0,0,3.08-4.8,20.16,20.16,0,0,0,1.33-7.88q0-3.09-.77-10.12t-2.17-17.14q-1.39-10.11-3.22-22.46t-3.91-25.72h-37.2q-2.1,13-4,24.86t-3.92,23.83q-2.94,18.51-2.94,26.06a20.67,20.67,0,0,0,1.12,7.37,14.58,14.58,0,0,0,2.87,4.8,11,11,0,0,0,3.77,2.75c1.35.57,2.64,1.08,3.85,1.54V252H324.19v-3.77a11.35,11.35,0,0,0,6.23-4.8,25.17,25.17,0,0,0,3-5.15A111.67,111.67,0,0,0,336.64,227q2.24-8.92,5.45-26.41,2.94-16.11,6.58-36.69t7.48-42.34q3.84-21.78,7.62-43.89t7.13-41.32l-1.4-7.55a31.4,31.4,0,0,0,4.55-6.51,62.59,62.59,0,0,0,3.56-7.89q1.54-4.11,2.59-7.88C380.9,4,381.44,2,381.81.34h1.12q4.33,28.47,8.25,54t7.48,49.2q3.57,23.67,6.92,45.78t6.71,43.72q1.54,10.63,2.87,17.66t3,15.94q.27,1.38,1.26,4.8a52.48,52.48,0,0,0,2.58,7,25.34,25.34,0,0,0,4,6.35,8.39,8.39,0,0,0,5.59,3.08V252ZM372.44,44.23Q371.6,48.7,370,58.29t-4,23.32q-2.38,13.71-5.25,31t-6.22,37.55h34.82q-2.39-15.44-4.82-30.86t-4.76-29.66q-2.31-14.23-4.19-26.06T372.44,44.23Z"/><path class="cls-1" d="M540.29,15.09q-3.15,4.8-4.83,14.74-1,5.14-1.26,19t-.56,29.66q-.27,14.74-.49,34.81t-.21,43v21.95q0,12,.07,24.51t.07,24.86V250a6,6,0,0,1-.34,2.23c-.24.57-.59.86-1,.86-.75,0-1.59-1.14-2.52-3.43q-11.89-33.6-21.68-61.72t-18.67-53.67q-8.88-25.53-17.41-49.89t-18-50.4v144.7q0,17.49.35,31.54t1.75,20.92c1,5.26,2.63,9.21,4.83,11.83a18.08,18.08,0,0,0,9,5.66V252H434.91V248.6a17,17,0,0,0,6.72-4.29q3.35-3.26,5.31-10.8,2-7.2,2.52-21.26t.84-33.6q.27-14.75.42-34.81t.14-43V59q0-6.85-.14-16.8a87.08,87.08,0,0,0-2-16.29A37.94,37.94,0,0,0,445.12,16a14.55,14.55,0,0,0-4.54-5.15,19.8,19.8,0,0,0-4.69-2.23V5.14h28.39l66.29,190V78.52q0-13.71-.14-26.23a147.92,147.92,0,0,0-1.26-19.71q-1.39-9.6-5-15.61a19.09,19.09,0,0,0-10.27-8.4V5.14h34.68V8.57A15.64,15.64,0,0,0,540.29,15.09Z"/><path class="cls-1" d="M698.05,1c42.18,0,80.1,6.61,106.78,18.62,27.28,12.28,41.69,29.2,41.69,48.94,0,34.91-39.61,57.42-95.58,85.41l-121,60.12-3.82,1.9H853.23v35H536.48V212l152.44-77.93,9.47-4.79c43.67-22.06,72.52-36.64,72.52-59,0-10.09-7.1-19.15-20-25.51-12.54-6.2-30.07-9.6-49.35-9.6h-6.38c-22.13,0-41.28,4.16-55.39,12S617.92,66,617.24,78.76H541c.58-23,16-42.52,44.7-56.52C613.72,8.54,653.63,1,698.05,1m0-1C607.67,0,540.27,30.32,540,79.76h78.25c.63-26.36,32.57-43.58,77-43.58h6.38c39.29,0,68.35,14,68.35,34.11,0,23.25-32.58,38.07-81.44,62.87l-153,78.21V252H854.23V215H630.34l121-60.12c57.17-28.6,96.13-51.16,96.13-86.31C847.52,27.05,784.6,0,698.05,0Z"/><path class="cls-1" d="M37.59,331.26l4.22,4.63-2.57,2.31L35,333.71a20.27,20.27,0,0,1-12.68,4.09c-12.15,0-20.41-8.78-20.41-21.59s8.26-21.6,20.41-21.6,20.41,8.78,20.41,21.6A22.69,22.69,0,0,1,37.59,331.26ZM22.33,298.11c-9.77,0-16,7.07-16,18.1s6.28,18.09,16,18.09a15.89,15.89,0,0,0,10.17-3.23l-4.89-5.29,2.71-2.38,4.62,5.09c2.25-3,3.44-7.2,3.44-12.28C38.38,305.18,32.1,298.11,22.33,298.11Z"/><path class="cls-1" d="M48.68,321.29V295.4h4.16v26.49c0,8.32,4.49,12.41,12.15,12.41S77.27,330.21,77.27,322V295.4h4v25.89C81.3,333.44,74,337.8,65,337.8S48.68,333.44,48.68,321.29Z"/><path class="cls-1" d="M107.52,295.4,125.09,337h-4.43l-5.61-13.41H95.37L90,337h-4.1L103,295.4Zm-10.7,24.7H113.6l-8.39-20.21h-.27Z"/><path class="cls-1" d="M134.53,295.4v38.11h23.91V337H130.37V295.4Z"/><path class="cls-1" d="M168.54,295.4V337h-4.16V295.4Z"/><path class="cls-1" d="M189.54,337V298.9H174.15v-3.5h35.14v3.5H193.7V337Z"/><path class="cls-1" d="M243.76,295.4h4.42l-16.31,25.16V337h-4V320.56L211.6,295.4h4.55l14,21.33Z"/><path class="cls-1" d="M281.93,337H265.35V295.4h16c10.17,0,14.2,4.49,14.2,11,0,4.88-3.5,8.25-8,9,5.21.86,9.18,4.23,9.18,10.17C296.79,332.78,291.64,337,281.93,337Zm-12.55-23.25h12.68c6.6,0,9.44-2.77,9.44-7.39s-2.84-7.47-9.44-7.47H269.38Zm0,3.37v16.38h12.88c6.8,0,10.5-3,10.5-8.12s-3.7-8.26-10.5-8.26Z"/><path class="cls-1" d="M332.38,337H303.59V295.4h28.2v3.5H307.62v14.8H327v3.5H307.62v16.31h24.76Z"/><path class="cls-1" d="M368.11,337H339.32V295.4h28.19v3.5H343.34v14.8h19.35v3.5H343.34v16.31h24.77Z"/><path class="cls-1" d="M375,337V295.4h27.54v3.5H379.14v15.46h18.62v3.5H379.14V337Z"/><path class="cls-1" d="M437.38,295.4h4.43l-16.32,25.16V337h-4V320.56L405.22,295.4h4.56l14,21.33Z"/><path class="cls-1" d="M471.39,337V298.9H456v-3.5h35.14v3.5H475.55V337Z"/><path class="cls-1" d="M525.54,337H496.75V295.4H525v3.5H500.78v14.8h19.35v3.5H500.78v16.31h24.76Z"/><path class="cls-1" d="M561.27,337H532.48V295.4h28.2v3.5H536.51v14.8h19.34v3.5H536.51v16.31h24.76Z"/><path class="cls-1" d="M567.87,318.39H582.4V322H567.87Z"/><path class="cls-1" d="M591.58,321.75c.33,8.26,5.88,12.82,13.47,12.82,6.87,0,11.16-3,11.16-8.19,0-4.23-2.51-6.48-8.52-7.66l-8.45-1.66c-5.94-1.18-10-4.35-10-10.63,0-6.87,5.49-11.82,14.27-11.82,10.1,0,16.11,5.55,16.11,14.93l-3.83.33c-.13-7.6-4.62-12-12.22-12-6.6,0-10.3,3.23-10.3,8.45,0,4.69,3,6.21,8.46,7.26l7.39,1.46c7.33,1.45,11.1,4.42,11.1,11,0,7.33-6.34,11.75-15.13,11.75-9.9,0-17.23-5.61-17.23-15.72Z"/><path class="cls-1" d="M626.91,337V295.4h4.16v18.3h26V295.4h4.16V337h-4.16V317.2h-26V337Z"/><path class="cls-1" d="M674,295.4V337h-4.16V295.4Z"/><path class="cls-1" d="M710,337c-.79-1.12-1.39-4.29-1.72-9.38-.26-4.56-2.44-8.19-8.65-8.19H686.68V337h-4.1V295.4H698.3c10.5,0,15.52,4.82,15.52,12,0,6.47-4.49,9.71-9.58,10.3,5.29,1,7.73,4.3,8.13,9.18.53,6.08.72,8.59,2.11,10.11Zm-11.56-21c7.73,0,11.1-3,11.1-8.59,0-5.15-3.37-8.52-11.1-8.52H686.68V316Z"/><path class="cls-1" d="M733.83,337V298.9H718.44v-3.5h35.14v3.5H738V337Z"/><path class="cls-1" d="M763.35,295.4V337h-4.16V295.4Z"/><path class="cls-1" d="M801.12,329.68V295.4h4V337h-3.31L775.9,301.15V337h-4V295.4h4.63Z"/><path class="cls-1" d="M811.69,316.21c0-12.82,8.71-21.6,20.07-21.6,11.63,0,18.3,6.47,19,17.24l-4,.26c-.4-8.45-5.82-14-15-14s-15.71,7-15.71,18.16,6.67,18,16.11,18c9,0,14.4-5.88,14.86-14H833.41v-3.5h17.31V337h-3.9v-8.19c-1.72,5.68-8.06,9-14.86,9C820.21,337.8,811.69,329.15,811.69,316.21Z"/></g></g></svg>